<svg width="13" height="17" viewBox="0 0 13 17" fill="none" xmlns="http://www.w3.org/2000/svg">
<path d="M2.37305 0.15625H11.373C12.1855 0.15625 12.873 0.84375 12.873 1.65625V14.6562C12.873 15.5 12.1855 16.1562 11.373 16.1562H8.37305V13.6562C8.37305 12.8438 7.68555 12.1562 6.87305 12.1562C6.0293 12.1562 5.37305 12.8438 5.37305 13.6562V16.1562H2.37305C1.5293 16.1562 0.873047 15.5 0.873047 14.6562V1.65625C0.873047 0.84375 1.5293 0.15625 2.37305 0.15625ZM2.87305 7.65625V8.65625C2.87305 8.9375 3.0918 9.15625 3.37305 9.15625H4.37305C4.62305 9.15625 4.87305 8.9375 4.87305 8.65625V7.65625C4.87305 7.40625 4.62305 7.15625 4.37305 7.15625H3.37305C3.0918 7.15625 2.87305 7.40625 2.87305 7.65625ZM6.37305 7.15625C6.0918 7.15625 5.87305 7.40625 5.87305 7.65625V8.65625C5.87305 8.9375 6.0918 9.15625 6.37305 9.15625H7.37305C7.62305 9.15625 7.87305 8.9375 7.87305 8.65625V7.65625C7.87305 7.40625 7.62305 7.15625 7.37305 7.15625H6.37305ZM8.87305 7.65625V8.65625C8.87305 8.9375 9.0918 9.15625 9.37305 9.15625H10.373C10.623 9.15625 10.873 8.9375 10.873 8.65625V7.65625C10.873 7.40625 10.623 7.15625 10.373 7.15625H9.37305C9.0918 7.15625 8.87305 7.40625 8.87305 7.65625ZM3.37305 3.15625C3.0918 3.15625 2.87305 3.40625 2.87305 3.65625V4.65625C2.87305 4.9375 3.0918 5.15625 3.37305 5.15625H4.37305C4.62305 5.15625 4.87305 4.9375 4.87305 4.65625V3.65625C4.87305 3.40625 4.62305 3.15625 4.37305 3.15625H3.37305ZM5.87305 3.65625V4.65625C5.87305 4.9375 6.0918 5.15625 6.37305 5.15625H7.37305C7.62305 5.15625 7.87305 4.9375 7.87305 4.65625V3.65625C7.87305 3.40625 7.62305 3.15625 7.37305 3.15625H6.37305C6.0918 3.15625 5.87305 3.40625 5.87305 3.65625ZM9.37305 3.15625C9.0918 3.15625 8.87305 3.40625 8.87305 3.65625V4.65625C8.87305 4.9375 9.0918 5.15625 9.37305 5.15625H10.373C10.623 5.15625 10.873 4.9375 10.873 4.65625V3.65625C10.873 3.40625 10.623 3.15625 10.373 3.15625H9.37305Z" fill="#303030"/>
</svg>
