<svg width="11" height="23" viewBox="0 0 11 23" fill="none" xmlns="http://www.w3.org/2000/svg">
<path d="M4.6543 17.875L0.654297 13.875C0.373047 13.5938 0.279297 13.1562 0.435547 12.7812C0.591797 12.4062 0.966797 12.1562 1.37305 12.1562H9.37305C9.7793 12.1562 10.123 12.4062 10.2793 12.7812C10.4355 13.1562 10.3418 13.5938 10.0605 13.875L6.06055 17.875C5.68555 18.2812 5.0293 18.2812 4.6543 17.875Z" fill="#303030"/>
<path d="M6.0918 4.28125L10.0918 8.28125C10.373 8.5625 10.4668 9 10.3105 9.375C10.1543 9.75 9.7793 10 9.37305 10L1.37305 10C0.966796 10 0.623046 9.75 0.466796 9.375C0.310546 9 0.404296 8.5625 0.685546 8.28125L4.68555 4.28125C5.06055 3.875 5.7168 3.875 6.0918 4.28125Z" fill="#303030"/>
</svg>
