<svg width="17" height="12" viewBox="0 0 17 12" fill="none" xmlns="http://www.w3.org/2000/svg">
<path d="M2.37305 0H15.373C16.1855 0 16.873 0.6875 16.873 1.5C16.873 2 16.623 2.4375 16.248 2.71875L9.4668 7.8125C9.0918 8.09375 8.62305 8.09375 8.24805 7.8125L1.4668 2.71875C1.0918 2.4375 0.873047 2 0.873047 1.5C0.873047 0.6875 1.5293 0 2.37305 0ZM0.873047 3.5L7.6543 8.625C8.37305 9.15625 9.3418 9.15625 10.0605 8.625L16.873 3.5V10C16.873 11.125 15.9668 12 14.873 12H2.87305C1.74805 12 0.873047 11.125 0.873047 10V3.5Z" fill="#303030"/>
</svg>
