<svg width="17" height="17" viewBox="0 0 17 17" fill="none" xmlns="http://www.w3.org/2000/svg">
<path d="M5.49805 1.28125L6.74805 4.28125C6.9668 4.78125 6.8418 5.375 6.4043 5.71875L4.87305 7C5.9043 9.1875 7.68555 10.9688 9.87305 12L11.1543 10.4688C11.498 10.0312 12.0918 9.90625 12.5918 10.125L15.5918 11.375C16.1855 11.5938 16.4668 12.25 16.3105 12.8438L15.5605 15.5938C15.4043 16.125 14.9355 16.5 14.373 16.5C6.62305 16.5 0.373047 10.25 0.373047 2.5C0.373047 1.9375 0.748047 1.46875 1.2793 1.3125L4.0293 0.5625C4.62305 0.40625 5.2793 0.6875 5.49805 1.28125Z" fill="#303030"/>
</svg>
