<svg width="17" height="17" viewBox="0 0 17 17" fill="none" xmlns="http://www.w3.org/2000/svg">
<path d="M7.37305 1.65625C7.37305 1.125 7.81055 0.65625 8.37305 0.65625C8.9043 0.65625 9.37305 1.125 9.37305 1.65625H14.1543C14.2793 1.65625 14.4043 1.71875 14.498 1.8125L15.998 3.3125C16.1855 3.5 16.1855 3.84375 15.998 4.03125L14.498 5.53125C14.4043 5.625 14.2793 5.65625 14.1543 5.65625H2.37305C1.81055 5.65625 1.37305 5.21875 1.37305 4.65625V2.65625C1.37305 2.125 1.81055 1.65625 2.37305 1.65625H7.37305ZM15.373 8.65625V10.6562C15.373 11.2188 14.9043 11.6562 14.373 11.6562H2.56055C2.43555 11.6562 2.31055 11.625 2.2168 11.5312L0.716797 10.0312C0.529297 9.84375 0.529297 9.5 0.716797 9.3125L2.2168 7.8125C2.31055 7.71875 2.43555 7.65625 2.56055 7.65625H7.37305V6.65625H9.37305V7.65625H14.373C14.9043 7.65625 15.373 8.125 15.373 8.65625ZM9.37305 15.6562C9.37305 16.2188 8.9043 16.6562 8.37305 16.6562C7.81055 16.6562 7.37305 16.2188 7.37305 15.6562V12.6562H9.37305V15.6562Z" fill="#303030"/>
</svg>
